<?xml version="1.0" encoding="utf-8" ?>
<svg xmlns="http://www.w3.org/2000/svg" xmlns:xlink="http://www.w3.org/1999/xlink" width="512" height="512">
	<path fill="#393E41" d="M255.147 295.297C260.523 295.005 266.191 298.871 265.202 304.369C264.53 308.107 263.026 311.829 261.849 315.434L255.321 337.131C254.051 342.201 252.834 346.247 247.325 348.173C242.084 349.348 236.6 345.168 237.339 339.477C237.727 336.484 238.698 333.491 239.525 330.594L244.216 315.437C246.378 308.765 247.723 298.1 255.147 295.297Z"/>
	<path fill="#393E41" d="M264.176 441.612C267.862 441.438 270.893 443.341 272.479 446.76L272.625 447.087C274.974 452.236 271.393 458.289 269.793 463.183L264.142 480.375C262.182 486.295 261.439 493.542 254.157 494.663C241.158 494.125 245.872 482.139 248.226 474.985L255.826 451.522C257.325 446.719 258.379 442.329 264.176 441.612Z"/>
	<path fill="#393E41" d="M334.259 295.342C337.621 295.677 340.806 297.263 341.989 300.697L342.077 300.967C343.655 305.543 340.93 311.226 339.503 315.533L336.626 324.839C334.157 332.901 332.756 348.374 322.965 349.452C316.237 348.898 313.678 344.77 315.216 338.75L324.409 308.157C326.28 302.578 327.385 296.28 334.259 295.342Z"/>
	<path fill="#393E41" d="M177.211 295.28C181.216 295.052 185.131 297.708 186.244 301.615C187.391 305.634 184.736 310.594 183.588 314.347L177.69 333.5C175.825 339.754 175.434 347.658 167.836 349.455C163.802 350.172 159.819 347.193 158.603 343.375C157.796 340.84 159.292 336.673 159.962 334.155L166.827 311.953C168.969 305.553 169.907 297.626 177.211 295.28Z"/>
	<path fill="#393E41" d="M293.816 366.359C299.246 365.924 304.913 370.374 303.554 376.321C302.983 378.818 302.039 381.226 301.246 383.66L293.379 408.227C292.085 413.464 290.647 418.847 284.888 420.837C283.284 421.353 281.526 421.158 280.019 420.366L279.75 420.22C278.558 419.58 277.308 418.442 276.549 417.311L276.375 417.043C272.891 411.798 276.27 406.694 277.955 401.393L284.957 379.541C286.822 373.871 287.162 367.993 293.816 366.359Z"/>
	<path fill="#393E41" d="M221.35 366.566C226.875 366.143 232.345 370.541 231.15 376.578C230.516 379.785 229.29 382.999 228.25 386.096L223.625 399.983C221.215 407.295 220.45 418.022 212.428 421.314C206.711 421.945 201.551 416.872 202.685 410.954C203.473 406.846 205.25 402.545 206.504 398.519L211.861 381.545C213.741 375.8 214.913 368.724 221.35 366.566Z"/>
	<path fill="#393E41" d="M233.289 14.3734C274.69 13.7382 314.029 35.4663 337.217 69.5C340.251 73.9527 342.188 78.5755 344.861 83.1618C349.121 81.0401 353.386 79.0033 358 77.758C389.616 69.2257 421.439 95.751 422.418 128.079L422.479 130.437C422.485 130.717 422.265 131.12 422.497 131.277C422.596 131.344 435.141 131.613 436.416 131.77C451.145 133.587 465.48 141.268 476.003 151.629C514.807 189.837 496.916 256.989 443.694 269.87C432.85 272.494 421.763 272.105 410.697 272.107L285.724 272.116L101.546 272.107C93.488 272.101 84.9826 272.65 77 271.531C45.4092 267.099 20.5137 243.163 15.8759 211.207C11.6388 182.012 26.8972 151.47 53.6405 138.446C59.4238 135.63 65.1484 133.869 71.25 131.975C73.7239 131.207 73.0292 131.095 73.6061 128.647C77.9849 110.067 94.7038 95.1994 113.106 91.4236C115.988 90.8323 118.911 90.6971 121.814 90.2781C139.405 44.1163 185.094 16.2664 233.289 14.3734Z"/>
</svg>
