<?xml version="1.0" encoding="utf-8" ?>
<svg xmlns="http://www.w3.org/2000/svg" xmlns:xlink="http://www.w3.org/1999/xlink" width="512" height="512">
	<path fill="#393E41" d="M256.136 228.984C247.377 225.302 240.24 217.599 234.032 210.682C209.268 183.092 198.507 148.423 206.563 112.085C213.769 79.5803 232.272 48.7444 256.274 25.6636L268.496 39.0471C286.043 59.8958 299.832 85.7631 305.574 112.4C314.312 152.933 298.641 194.311 267.153 221.086C263.771 223.962 260.171 227.071 256.136 228.984Z"/>
	<path fill="#393E41" d="M211.827 280.746L209.361 280.701C141.521 278.936 94.5451 244.927 81.1254 177.77C79.6997 170.635 78.6262 163.512 78.83 156.218L91.892 155.973L91.9552 155.97C160.2 154.657 213.278 196.001 223.53 263.171C224.408 268.923 224.55 274.582 224.695 280.385L211.827 280.746Z"/>
	<path fill="#393E41" d="M306.438 280.283C305.564 280.131 303.317 280.415 302.301 280.419L287.653 280.047C287.485 279.024 287.663 277.678 287.677 276.629C287.979 253.305 296.152 230.583 308.508 210.978C332.786 172.454 369.174 157.932 414.135 156.029L423.736 155.981C426.941 155.982 430.118 155.837 433.265 156.541C433.42 163.869 432.073 171.2 430.541 178.339C416.808 242.328 372.795 278.831 306.438 280.283Z"/>
	<path fill="#393E41" d="M269.088 478.93L242.224 478.877C241.958 477.559 242.181 475.885 242.197 474.532L242.248 241.506C242.258 239.354 241.577 237.667 244.027 237.369L269.873 237.507L269.088 478.93Z"/>
	<path fill="#393E41" d="M194.56 363.918C149.451 370.456 103.123 346.516 87.032 302.653C85.1969 297.65 83.6956 292.682 83.7443 287.315C90.163 284.291 112.012 279.049 119.776 280.376C124.934 280.2 130.243 280.075 135.384 280.5C178.127 284.033 213.165 315.333 231.249 352.882C219.457 358.385 207.499 362.267 194.56 363.918Z"/>
	<path fill="#393E41" d="M328.938 364.41L309.875 362.232C305.494 361.415 283.126 356.66 282.078 351.889C283.333 347.663 285.55 343.812 287.727 340C306.057 307.896 339.531 285.123 376.25 280.677C378.311 280.428 381.358 279.804 383.315 280.35C398.618 279.28 415.14 282.38 429.339 287.795C428.125 292.083 427.404 296.428 426.034 300.709C417.901 326.136 394.614 348.106 369.958 357.625C356.579 362.79 343.163 364.857 328.938 364.41Z"/>
	<path fill="#393E41" d="M191.952 450.844L187.769 451.409C137.896 457.497 88.9841 428.337 82.7674 376.841C95.2114 371.535 109.251 367.835 122.799 367.417C128.04 367.384 133.423 367.223 138.646 367.638C181.217 371.022 214.264 398.383 233.021 435.265C220.478 442.646 206.298 448.236 191.952 450.844Z"/>
	<path fill="#393E41" d="M332.688 451.941C314.227 450.992 295.422 445.007 279.475 435.684C294.692 396.994 336.621 370.157 377.427 367.595C397.386 367.108 410.451 369.397 429.533 376.759C428.61 381.714 427.753 386.552 426.228 391.375C415.837 424.241 383.984 447.286 350.43 451.503C344.567 452.239 338.584 452.092 332.688 451.941Z"/>
</svg>
