<?xml version="1.0" encoding="utf-8" ?>
<svg xmlns="http://www.w3.org/2000/svg" xmlns:xlink="http://www.w3.org/1999/xlink" width="512" height="512">
	<path fill="#393E41" d="M157.446 158.293L175.355 158.257C178.268 158.258 182.238 157.441 184.727 159.298L185 159.504C191.688 164.418 189.819 171.744 181.93 172.989L177.967 173.229L160.911 173.098C158.432 173.088 154.47 173.55 152.181 172.688L151.75 172.514C144.809 170.27 144.436 159.83 152.362 158.659L157.446 158.293Z"/>
	<path fill="#393E41" d="M329.654 232.302L346.543 232.22C350.916 232.22 355.454 231.942 359.801 232.25C366.75 232.742 368.216 244.803 359.161 246.733L330.777 246.768C320.021 246.74 319.856 234.202 329.654 232.302Z"/>
	<path fill="#393E41" d="M166.978 207.128L176.792 207.1C178.684 207.099 180.934 206.905 182.758 207.44C190.194 209.619 192.217 217.732 183.546 221.643C181.624 222.51 179.315 222.27 177.251 222.276L168.661 222.276L159.819 222.272C157.774 222.265 155.613 222.377 153.62 221.852L153.25 221.75C147.931 220.319 143.847 214.299 148.381 209.692C151.243 206.784 155.42 207.176 159.156 207.156L166.978 207.128Z"/>
	<path fill="#393E41" d="M164.124 109.387C170.884 109.743 189.478 106.682 189.192 117.125C189.02 123.379 182.384 124.535 177.545 124.585L170.688 124.631L152.75 124.554C147.767 124.036 144.035 116.289 147.682 112.525C151.737 108.339 158.808 109.406 164.124 109.387Z"/>
	<path fill="#393E41" d="M152.774 256.765L171.42 256.705C174.756 256.709 179.018 256.219 182.224 257.122C190.034 259.322 191.484 268.411 183.237 271.645C180.878 272.228 178.409 272.004 176 271.995L156.856 271.95C143.52 271.889 143.974 259.604 152.774 256.765Z"/>
	<path fill="#393E41" d="M355.584 141.001C372.276 140.547 368.452 154.022 361.981 155.309C359.587 155.786 356.45 155.427 353.99 155.428L335.221 155.41C332.997 155.381 330.483 155.572 328.301 155.199L328 155.143C320.791 154.001 321.406 142.445 328.173 141.13C330.552 140.668 333.596 141.014 336.069 141.008L355.584 141.001Z"/>
	<path fill="#393E41" d="M360.026 186.499L369.136 186.452C379.392 187.326 375.937 200.385 369.883 201.166C366.779 201.566 363.259 201.227 360.093 201.229L338.24 201.207L332.25 201.225C330.971 201.22 329.514 201.29 328.321 200.778L328.063 200.661C324.773 199.24 322.175 196.847 322.696 192.95L322.745 192.625C323.864 184.916 332.118 186.508 337.628 186.504L360.026 186.499Z"/>
	<path fill="#393E41" d="M330.679 94.6148L366.497 94.5664C367.823 94.5682 369.642 94.4099 370.911 94.8285L371.375 94.9978C380.557 98.2172 378.162 108.287 369.627 109.402L342.916 109.39C335.031 109.384 325.36 111.762 322.569 102.014C323.634 97.6117 325.855 94.8959 330.679 94.6148Z"/>
	<path fill="#393E41" d="M368.737 278.483L368.829 278.466C371.494 278.258 375.161 278.033 377.351 279.822C384.184 285.403 380.586 293.382 370.383 293.355L335.136 293.353C333.486 293.339 331.689 293.432 330.065 293.145L329.75 293.086C320.869 291.589 318.644 278.547 332 278.492L368.737 278.483Z"/>
	<path fill="#393E41" d="M117.063 136.331C118.148 136.336 119.419 136.461 120.426 136.879C128.336 140.16 125.441 146.489 121.287 151.497L116.292 157.875C94.2323 188.755 83.9864 228.169 86.3692 265.969C88.3867 297.975 101.687 336.807 122.433 361.199C127.508 367.165 130.769 373.785 121.306 377.387C113.542 377.558 105.184 362.816 101.356 356.963C60.5117 294.509 61.4642 206.56 106.613 146.518C108.773 143.645 111.254 139.446 114.315 137.524L114.564 137.375C115.358 136.887 116.185 136.624 117.063 136.331Z"/>
	<path fill="#393E41" d="M393.313 136.754C398.138 136.533 401.318 140.779 403.971 144.25L410.606 153.872C427.896 180.904 437.721 209.681 439.791 241.984L439.998 256.01C439.98 266.997 439.466 278.942 437.056 289.736L433.191 306.25C426.761 328.672 417.706 347.718 403.909 366.661C400.896 370.797 397.634 376.701 392.164 377.539C386.017 376.613 381.4 369.656 386.449 364.461C390.464 360.328 393.806 355.999 397.007 351.215C435.583 293.544 434.944 215.66 396.062 158.481C393.412 154.583 385.916 148.569 386.691 143.447L386.745 143.125C387.288 139.649 390.157 137.761 393.313 136.754Z"/>
	<path fill="#393E41" d="M365.785 49.0782C369.864 49.3083 373.075 51.3558 376.558 53.3195C435.801 86.7194 477.479 146.396 489.832 213.211C506.76 304.769 465.766 400.804 386.501 450.658L372.04 458.812C370.597 459.577 369.141 460.124 367.607 460.677C360.184 461.535 357.254 453.944 360.959 449.422C362.839 447.129 366.083 445.508 368.627 444.07L396.5 425.211C421.095 406.397 440.948 381.73 455.125 354.288L462.078 340.022C473.843 312.632 478.83 284.181 478.789 254.601C478.704 192.878 453.527 134.76 407.111 93.5783C398.617 86.0417 389.709 78.8217 380.043 72.8268L369.776 66.9413C364.743 64.1613 357.132 60.0878 360.477 53.118C361.523 50.94 363.615 49.828 365.785 49.0782Z"/>
	<path fill="#393E41" d="M144.274 49.2595C145.079 49.2388 146.066 49.1252 146.847 49.328L147.25 49.4728C151.669 51.0305 154.651 56.4682 151.456 60.625C149.96 62.5703 147.169 63.9042 145.071 65.0749L128.031 75.4953L115.302 84.7599C69.875 120.363 41.5592 172.071 34.66 229.25L33.2194 243.125C28.7817 323.998 68.7545 396.874 136.855 440.237C140.717 442.697 145.006 444.688 148.732 447.32C154.621 451.479 153.256 458.723 146.966 461.307C137.742 461.22 114.074 442.966 106.773 437.193C56.8277 397.7 24.4395 338.709 19.3201 274.992L18.6442 267.547C14.9724 185.209 52.5686 107.054 122.415 61.3495C129.097 56.9773 136.637 51.8635 144.274 49.2595Z"/>
	<path fill="#393E41" d="M253.72 28.3957L256.5 28.2838C280.68 28.5765 301.808 46.1705 306.192 69.9707C307.11 74.9531 307.102 79.8841 307.11 84.9323L307.044 297.488C308.779 298.978 311.196 299.999 313.142 301.259C339.547 318.36 355.101 348.369 356.057 379.643C357.763 435.468 312.568 478.399 257.833 479.888C248.911 480.06 240.477 479.006 231.75 477.186L227.401 476.031C176.692 462.346 145.055 406.873 159.165 356.33C165.741 332.776 180.922 312.651 201.652 299.848C205.131 297.7 206.136 298.837 206.12 294.393L206.089 95.9861C206.088 87.9202 205.549 79.3808 206.528 71.375C209.601 46.2343 229.771 30.9771 253.72 28.3957ZM253.706 86.3105C239.044 88.7181 236.03 98.513 236.159 110.947L236.27 333.465C236.293 336.226 235.412 335.588 233.159 337.034C220.313 345.282 209.692 358.741 207.938 374.25L207.888 374.677C205.021 399.971 223.901 424.159 248.728 428.35C251.872 428.88 255.147 428.771 258.327 428.74C304.772 424.526 320.912 370.07 284.525 340.587C281.892 338.453 278.932 336.319 275.73 335.164L275.739 112.322C275.732 100.222 274.49 91.3226 260.64 86.8161C258.416 86.0925 256.009 86.241 253.706 86.3105Z"/>
	<path fill="#393E41" d="M254.302 99.3153C263.723 99.005 263.474 104.088 263.473 111.939L263.585 332.683L257.187 332.278L247.99 332.433L248.124 107.375C248.166 106.288 248.19 105.148 248.674 104.152L248.818 103.875C250.052 101.415 251.881 100.359 254.302 99.3153Z"/>
</svg>
